<?xml version="1.0" standalone="no"?>
<!DOCTYPE svg PUBLIC "-//W3C//DTD SVG 20010904//EN"
 "http://www.w3.org/TR/2001/REC-SVG-20010904/DTD/svg10.dtd">
<svg version="1.0" xmlns="http://www.w3.org/2000/svg"
 width="246.000000pt" height="304.000000pt" viewBox="0 0 246.000000 304.000000"
 preserveAspectRatio="xMidYMid meet">

<g transform="translate(0.000000,304.000000) scale(0.100000,-0.100000)"
fill="#000000" stroke="none">
<path d="M90 3018 c-25 -13 -55 -38 -67 -57 l-23 -34 0 -1411 c0 -1390 0
-1411 20 -1444 11 -18 34 -41 52 -52 32 -20 53 -20 1153 -20 l1120 0 36 24
c74 51 69 -67 69 1498 l0 1403 -25 37 c-13 20 -44 45 -68 57 -43 21 -45 21
-1133 21 l-1090 0 -44 -22z m1209 -344 c28 -8 55 -22 58 -30 9 -23 -3 -27 -34
-11 -64 33 -123 31 -215 -8 -27 -11 -23 22 4 36 59 32 113 35 187 13z m-18
-66 c50 -14 55 -45 7 -32 -30 7 -82 8 -133 1 -33 -4 -27 17 8 30 42 15 71 16
118 1z m-23 -64 c12 -4 22 -12 22 -19 0 -16 -106 -20 -115 -5 -13 21 46 36 93
24z m297 -89 c25 -24 25 -25 25 -230 0 -260 10 -245 -166 -245 l-125 0 7 -47
c9 -62 9 -63 50 -63 24 0 34 -4 32 -12 -4 -10 -46 -14 -156 -16 -131 -2 -152
0 -152 13 0 10 10 15 35 15 32 0 35 3 40 38 4 20 9 45 12 55 4 16 -7 17 -126
17 -172 0 -161 -17 -161 250 0 210 3 230 40 243 8 3 151 6 318 6 l303 1 24
-25z m-495 -1100 l0 -135 -225 0 -225 0 0 -84 0 -84 153 -4 c139 -3 156 -5
194 -27 24 -14 55 -42 70 -64 l28 -40 3 -208 c3 -190 1 -211 -17 -246 -23 -46
-66 -88 -104 -102 -18 -7 -136 -11 -313 -11 l-284 0 0 130 0 130 230 0 230 0
0 85 0 85 -125 0 c-168 0 -216 11 -270 64 -27 25 -47 56 -54 81 -6 22 -11 120
-11 218 0 193 7 226 58 281 58 62 79 66 385 66 l277 0 0 -135z m952 100 c23
-17 54 -51 68 -75 l25 -45 3 -393 c4 -454 1 -473 -68 -536 -23 -20 -52 -41
-66 -46 -14 -6 -168 -10 -350 -10 l-324 0 0 571 0 570 334 -3 334 -3 44 -30z"/>
<path d="M913 2443 c-10 -3 -13 -48 -13 -174 l0 -169 325 0 325 0 0 163 c0
113 -4 167 -12 175 -9 9 -91 12 -312 11 -166 0 -307 -3 -313 -6z m322 -123 c0
-34 -5 -55 -12 -57 -10 -4 -13 12 -13 57 0 45 3 61 13 58 7 -3 12 -24 12 -58z
m-41 21 c3 -4 -3 -16 -14 -26 -44 -40 -13 -117 47 -117 55 0 84 80 43 117 -23
21 -26 35 -6 35 22 0 56 -49 56 -81 0 -44 -20 -77 -57 -94 -31 -15 -40 -15
-72 -3 -50 19 -77 73 -61 123 14 42 50 69 64 46z"/>
<path d="M1560 915 l0 -305 124 0 c100 0 128 3 140 16 14 13 16 53 16 285 0
167 -4 278 -10 290 -10 17 -22 19 -140 19 l-130 0 0 -305z"/>
</g>
</svg>
